<?xml version="1.0" encoding="utf-8"?>
<!-- Generator: Adobe Illustrator 17.0.1, SVG Export Plug-In . SVG Version: 6.00 Build 0)  -->
<!DOCTYPE svg PUBLIC "-//W3C//DTD SVG 1.1//EN" "http://www.w3.org/Graphics/SVG/1.1/DTD/svg11.dtd">
<svg version="1.1" id="carta_1_" xmlns="http://www.w3.org/2000/svg" xmlns:xlink="http://www.w3.org/1999/xlink" x="0px" y="0px"
	 width="300px" height="300px" viewBox="0 0 300 300" enable-background="new 0 0 300 300" xml:space="preserve">
<path id="carta" fill="#BF0000" d="M99.276,198.704c0-3.004,0-6.008,0-9.013c0-40.013-0.017-80.026,0.012-120.04
	c0.007-9.888,3.836-15.466,10.955-16.266c9.735-1.095,15.395,4.282,15.442,15.131c0.105,24.233,0.034,48.467,0.035,72.7
	c0,3.063,0,2.126,0,7.598c0,3.342,6.436,5.967,6.436-1.908c0-3.022,0.011-5.032,0.015-8.122c0.034-32.687-0.016-65.374,0.057-98.06
	c0.016-7.18,0.356-14.545,9.683-16.062c10.345-1.682,15.934,3.254,15.953,14.042c0.061,35.505,0.024,71.009,0.024,106.514
	c0,3.023,0,4.047,0,7.284c0,3.831,7.486,2.498,7.486,0.373c0,0-0.254-5.121-0.248-7.561c0.08-32.405,0.043-64.81,0.044-97.215
	c0-12.293,3.848-18.044,12.108-18.111c8.808-0.071,12.688,5.659,12.688,18.748c0.001,33.814-0.039,67.628,0.065,101.442
	c0.01,3.201-0.161,9.54,1.416,9.598c1.578,0.058,1.506,0.166,3.746,0.139s2.02-6.872,2.05-10.316
	c0.189-21.977,0.064-43.957,0.111-65.936c0.02-9.457,3.655-13.404,12.06-13.388c8.291,0.016,12.673,4.392,12.684,13.212
	c0.058,50.721,0.433,101.448-0.274,152.159c-0.163,11.666-0.097,24.285-8.807,34.284c-6.994,8.029-15.283,12.876-26.216,12.801
	c-17.188-0.118-34.439-0.948-51.55,0.201c-21.323,1.431-35.525-8.596-47.421-24.708c-16.81-22.767-24.475-49.343-32.032-75.884
	c-1.342-4.714,1.216-8.619,2.686-12.709c3.685-10.255,8.13-20.244,11.632-30.557c3.105-9.143,10.6-11.32,17.723-4.556
	c8.206,7.792,4.392,17.035,3.345,26.064c-1.14,9.826-2.516,19.733-2.216,29.557c0.105,3.431,4.889,6.719,7.537,10.072
	C97.36,201.062,99.276,201.453,99.276,198.704z"/>
</svg>
