<?xml version="1.0" encoding="utf-8"?>
<!-- Generator: Adobe Illustrator 17.0.1, SVG Export Plug-In . SVG Version: 6.00 Build 0)  -->
<!DOCTYPE svg PUBLIC "-//W3C//DTD SVG 1.1//EN" "http://www.w3.org/Graphics/SVG/1.1/DTD/svg11.dtd">
<svg version="1.1" id="forbici" xmlns="http://www.w3.org/2000/svg" xmlns:xlink="http://www.w3.org/1999/xlink" x="0px" y="0px"
	 width="300px" height="300px" viewBox="0 0 300 300" enable-background="new 0 0 300 300" xml:space="preserve">
<path fill="#BF0000" d="M146.258,226.232c-1.882-12.811-11.338-21.084-18.653-30.622c-6.083-7.932-6.148-8.348,2.825-13.459
	c8.593-4.895,15.637-8.566,25.176-13.762c1.929-1.372-0.459,27.052,18.376,28.831c12.437,1.175,17.216-2.579,21.155-13.919
	c0.531-2.488,25.755-1.05,25.755,1.569c0,5.194-0.778,44.42-3.427,66.654c-2.264,19.006-16.51,33.94-40.426,32.293
	c-10.83-0.746-21.807-0.817-32.625,0.014c-24.317,1.867-38.82-11.821-49.845-30.73c-10.05-17.237-14.115-36.567-16.032-56.12
	c-0.604-6.157,2.014-13.104,4.697-18.987c3.31-7.259,7.483-14.433,12.694-20.416c3.927-4.51,9.694-8,15.311-10.33
	c10.626-4.406,21.821-7.418,32.602-11.48c5.289-1.993,10.343-5,15.172,0.214c4.923,5.314,5.055,14.419,0.1,19.889
	c-3.134,3.459-6.829,6.562-10.727,9.138c-4.828,3.192-10.063,5.797-15.233,8.439c-19.427,9.926-20.526,17.123-5.642,33.001
	c4.483,4.782,7.705,10.733,11.643,16.047c1.507,2.033,3.4,3.779,5.117,5.656C145.719,229.281,146.75,229.031,146.258,226.232z"/>
<path fill="#BF0000" d="M159.156,125.914c-6.071,1.486-12.272,2.581-18.187,4.538c-13.508,4.468-40.812,15.844-41.094,14.355
	c-0.282-1.489-4.649-24.786-6.905-36.401c-5.246-27.008-10.372-54.041-15.929-80.984c-1.461-7.083-1.498-12.711,6.51-15.367
	c7.071-2.345,15.088,1.365,17.061,9.053c6.988,27.233,13.497,54.588,20.169,81.902c1.761,7.21,3.337,14.468,5.271,21.631
	c1.574,4.298,4.855,5.283,5.494,2.11c2.22-10.746,3.253-15.162,4.864-23.67c5.231-27.626,10.231-55.296,15.63-82.889
	c1.421-7.261,5.022-12.697,13.995-12.272c8.796,0.417,12.699,4.096,11.59,13.124c-1.482,12.072-3.474,24.082-5.267,36.115
	c-3.214,21.561-6.425,43.122-9.695,64.674C162.343,123.934,162.75,125.333,159.156,125.914z"/>
<path fill="#BF0000" d="M179.731,120.231c8.532-0.044,13.515,4.876,12.991,13.552c-0.92,15.247-2.026,30.488-3.386,45.701
	c-0.737,8.249-7.22,13.211-14.906,12.106c-7.412-1.066-11.556-7.038-10.883-15.094c1.131-13.559,2.181-27.127,2.996-40.708
	C167.183,125.132,171.095,120.276,179.731,120.231z"/>
<path fill="#BF0000" d="M222.976,143.78c-0.621,8.631-0.974,16.695-1.847,24.703c-0.744,6.817-6.961,10.794-14.745,9.978
	c-6.392-0.67-11.011-6.033-10.7-12.499c0.36-7.489,0.713-14.978,1.174-22.461c0.729-11.841,5.29-17.115,14.184-16.558
	C219.349,127.465,223.104,132.952,222.976,143.78z"/>
</svg>
