<?xml version="1.0" encoding="utf-8"?>
<!-- Generator: Adobe Illustrator 17.0.1, SVG Export Plug-In . SVG Version: 6.00 Build 0)  -->
<!DOCTYPE svg PUBLIC "-//W3C//DTD SVG 1.1//EN" "http://www.w3.org/Graphics/SVG/1.1/DTD/svg11.dtd">
<svg version="1.1" id="sasso_1_" xmlns="http://www.w3.org/2000/svg" xmlns:xlink="http://www.w3.org/1999/xlink" x="0px" y="0px"
	 width="300px" height="300px" viewBox="0 0 300 300" enable-background="new 0 0 300 300" xml:space="preserve">
<path fill="#BF0000" d="M109.533,158.413c23.124,1.056,23.811-2.616,24.426-1.349c8.7,13.795,15.703,15.885,30.02,5.942
	c0.423-0.294,0.69-0.386,0.833-0.38c0.185,0.007,0.639,0.256,0.745,0.364c9.85,9.887,24.711,12.476,31.157-3.257
	c-0.36-3.289,26.265-1.766,26.265,1.519c-1.453,20.628-1.493,41.186-5.088,63.3c-3.019,18.573-18.907,29.791-38.474,28.82
	c-13.297-0.66-26.689-0.736-39.976,0.022c-18.244,1.041-30.007-9.591-40.616-21.723c-18.774-21.47-34.713-65.087-34.627-74.888
	c0.044-5.006,11.161-34.928,13.968-44.674c1.711-5.938,2.759-11.266,9.981-11.377c6.624-0.102,14.377,7.216,14.105,14.349
	c-0.347,9.103-4.434,29.762-4.624,31.077c-2.695,18.691-1.012,22.012,17.54,26.755c21.369,5.463,37.006,16.872,44.897,38.009
	c0.601,1.609,1.808,4.391,5.193,3.563c2.49-0.109,0.853-4.007,0.311-5.7c-6.318-19.716-19.752-32.353-39.238-38.802
	c-3.325-1.1-6.623-2.526-10.047-3.033C109.758,165.984,108.442,162.353,109.533,158.413z"/>
<path fill="#BF0000" d="M138.92,117.195c0.001-10.582-0.074-21.165,0.025-31.746c0.076-8.141,4.125-12.637,11.302-12.885
	c7.136-0.246,12.137,4.118,12.236,12.014c0.28,22.246,0.279,44.499,0,66.745c-0.094,7.487-5.041,11.925-11.722,11.909
	c-6.74-0.017-11.729-5.208-11.81-12.664C138.83,139.445,138.92,128.32,138.92,117.195z"/>
<path fill="#BF0000" d="M192.251,121.196c0,10.067,0.084,20.134-0.03,30.2c-0.075,6.601-2.113,11.73-9.98,12.102
	c-8.891,0.42-13.135-2.445-13.342-11.286c-0.491-20.938-0.468-41.897-0.166-62.841c0.103-7.171,5.523-11.611,12.205-11.531
	c6.414,0.077,11.151,5.047,11.27,12.34C192.376,100.517,192.25,110.857,192.251,121.196z"/>
<path fill="#BF0000" d="M131.879,117.204c-0.001,8.42,0.133,16.843-0.043,25.259c-0.145,6.92-4.633,11.244-11.154,11.199
	c-6.443-0.044-11.04-4.479-11.098-11.353c-0.141-16.839-0.141-33.681,0.019-50.519c0.057-6.024,5.813-11.458,11.687-10.821
	c6.24,0.677,10.594,3.905,10.591,10.974C131.877,100.364,131.88,108.784,131.879,117.204z"/>
<path fill="#BF0000" d="M199.38,125.455c0-5.416,0.109-10.834-0.026-16.246c-0.185-7.405,4.489-9.964,10.691-10.42
	c6.73-0.494,11.416,3.857,11.537,10.619c0.202,11.369,0.203,22.747,0.002,34.116c-0.126,7.119-4.037,10.251-11.639,10.177
	c-6.92-0.067-10.58-3.307-10.566-10.375C199.389,137.37,199.38,131.413,199.38,125.455z"/>
</svg>
